/* XPM */
static char *freeguide[] = {
/* columns rows colors chars-per-pixel */
"32 32 123 2",
"   c #000000",
".  c #00000B",
"X  c #000015",
"o  c #00001D",
"O  c #000020",
"+  c #00002C",
"@  c #00003B",
"#  c #000045",
"$  c #000048",
"%  c #000053",
"&  c #00005C",
"*  c #000061",
"=  c #040468",
"-  c #090869",
";  c #24237E",
":  c #262580",
">  c #292B80",
",  c #313188",
"<  c #393984",
"1  c #3A3E8B",
"2  c #3B418E",
"3  c #433589",
"4  c #483E8B",
"5  c #513F90",
"6  c #434391",
"7  c #534F8C",
"8  c #524392",
"9  c #554A94",
"0  c #544C99",
"q  c #52518C",
"w  c #56529E",
"e  c #5755A0",
"r  c #5857A1",
"t  c #626296",
"y  c #817186",
"u  c #85798E",
"i  c #8D7C93",
"p  c #878396",
"a  c #898697",
"s  c #8F8D9E",
"d  c #9C89A6",
"f  c #9C8EA8",
"g  c #9591A5",
"h  c #9394B3",
"j  c #9898B7",
"k  c #A38DAB",
"l  c #A096AD",
"z  c #A695B1",
"x  c #A49BB4",
"c  c #A09FBE",
"v  c #A896B2",
"b  c #AB9EB6",
"n  c #A89FB8",
"m  c #A9A3BD",
"M  c #B3A1BF",
"N  c #B59FC1",
"B  c #BE9DC5",
"V  c #ADAAC1",
"C  c #AAAACF",
"Z  c #AFB2DF",
"A  c #B1A5C0",
"S  c #B4ACC5",
"D  c #BAA0C2",
"F  c #BCB2CA",
"G  c #BBB9C7",
"H  c #BEBACD",
"J  c #BDB6D2",
"K  c #BDBBD4",
"L  c #BFBDDD",
"P  c #B4BEE4",
"I  c #BFBEE3",
"U  c #B7C4EC",
"Y  c #B8C0E5",
"T  c #BBC2E8",
"R  c #B7CAF5",
"E  c #C2AEC7",
"W  c #C9A1CE",
"Q  c #CBA5D1",
"!  c #CEACD5",
"~  c #C3B3CD",
"^  c #C4BCCE",
"/  c #C7B6D8",
"(  c #C8B6D7",
")  c #CEBDD3",
"_  c #D1ADD6",
"`  c #D2AED8",
"'  c #D5B3DA",
"]  c #D6B9DE",
"[  c #D9BFE2",
"{  c #C9C0CD",
"}  c #C5C3D3",
"|  c #C5C4DA",
" . c #CCC4D4",
".. c #C8C4DE",
"X. c #CCC9D6",
"o. c #CECDD9",
"O. c #D0C3D7",
"+. c #D5C6D9",
"@. c #D1CDDA",
"#. c #D2D1DC",
"$. c #C4C2E2",
"%. c #C2C3EB",
"&. c #C9C7E4",
"*. c #CAC8E5",
"=. c #D5C4E5",
"-. c #D6CDE3",
";. c #D9C1E3",
":. c #DACBEA",
">. c #D1D1E0",
",. c #D7D0EF",
"<. c #D9D4E4",
"1. c #DCDAE6",
"2. c #DBD5F2",
"3. c #E3DFE5",
"4. c #E1DDF7",
"5. c #E2E0E6",
"6. c #E4E2E8",
"7. c #EBEAED",
"8. c #E3E1FA",
"9. c #EFEEF1",
"0. c #F0EEF1",
"q. c #F3F3F4",
"w. c None",
/* pixels */
"w.w.w.w.w.w.w.w.w.w.w.w.w.w.w.w.w.w.w.w.w.w.w.w.w.w.w.w.w.w.w.w.",
"w.w.w.w.w.w.w.w.w.w.w.w.w.w.w.w.w.w.w.w.    w.w.w.w.w.w.w.w.w.w.",
"w.w.w.w.w.    w.w.w.w.w.w.w.w.w.w.w.w.      w.w.w.w.w.w.w.w.w.w.",
"w.w.w.w.w.        w.w.w.w.w.w.w.w.w.w.      w.w.w.w.w.w.w.w.w.w.",
"w.w.w.w.w.w.        w.w.w.w.w.w.w.w.w.    w.w.w.w.w.w.w.w.w.w.w.",
"w.w.w.w.w.w.w.          w.w.w.w.w.w.      w.w.w.w.w.w.w.w.w.w.w.",
"w.w.w.w.w.w.w.w.w.        w.w.w.w.w.    w.w.w.w.w.w.w.w.w.w.w.w.",
"w.w.w.w.w.w.w.w.w.w.w.    w.w.w.w.      w.w.w.w.w.w.w.w.w.w.w.w.",
"w.w.w.w.w.w.w.w.w.w.w.      w.w.w.    w.w.w.w.w.w.w.w.w.w.w.w.w.",
"w.w.w.w.w.w.w.w.w.w.w.w.    w.w.w.    w.w.w.w.w.w.w.w.w.w.w.w.w.",
"w.w.w.w.w.w.w.w.w.w.w.w.      w.      w.w.w.w.w.w.w.w.w.w.w.w.w.",
"w.w.w.w.w.w.w.w.w.w.w.w.w.    w.    w.w.w.w.w.w.w.w.w.w.w.w.w.w.",
"w.w.w.w.w.w.w.w.w.w.w.w.w.          w.w.w.w.w.w.w.w.w.w.w.w.w.w.",
"w.      .                           .           .             w.",
". @ $ $ # # # # $ $ $ # $ $ $ @ # # # # # # # # # # $ $ $ $ # . ",
". & * = ; , , , , , , , , , , , , , , , , , , , , , , : = * & o ",
"X & * ; Z T T *.*.*.&.&.$.&.*.*.&.*.*.*.*.*.&...&.&.*.| < * * O ",
"X & * 2 R R #.q.q.q.q.q.X.9.q.q.q.q.q.q.q.q.7.o.q.q.q.q.t & * O ",
"X & * 2 Y Y | o.#.X.#.#.} o.@.o.o.} o.#.@.#.X.H o.@.o.#.q * * O ",
"X & & 2 R U >.q.7.X.0.q.q.q.q.q.#.G 5.q.q.q.7. .9.q.q.q.t & * O ",
"X & * 2 Y Y K o.X.K o.o.@.@.@.o.} ^ { X.X.X. .^  . .X.X.q * * O ",
"X & & 2 R U >.q.7.X.q.q.q.q.q.q.q.q.q.X.5.q.q.q.q.q.q.q.t * * O ",
"X & * 2 U Y | >.o.} o.#.o.o.@.@.X.X. .E  . . . . .)  . .7 * * O ",
"X & * 2 R U >.0.0.0.9.q.X.3.9.9.9.9.^ 6.9.9.9.0.5.{ 9.9.t * * O ",
"X & * 2 T T *.1.1.1.<.<.| +.-.-.<.+.~ +.+.] +.+.) E +.+.7 * & O ",
"X & * 6 %.%.2.8.8.4.,.2.-.:.=.:.;.] [ +.[ [ [ ! _ ] ' ' 9 * * O ",
"X & * 6 j c K | $...J S m S ( ( M D k D D ! ` Q W Q _ _ 9 * * O ",
"X & * 6 h j g s s a p g S l b b u v a t i B ` ' _ _ W ' 9 * * O ",
"X & * < C T K V V V A S x A A f v v k k k Q ` ' ` ` Q ` 4 & * O ",
"X & = - 6 r e e r r w w 0 0 0 0 9 9 8 8 8 8 5 5 5 5 5 3 - * * O ",
". % = * * & & * * * * & * * & * & & & & * & * * * * & * & = & X ",
"  O + + + + + + + + + + + + + + + + + + + + + + + + + + + + O   "
};
